#!OML:ASF H:\ManfredObstacles\Project 1\Capture day 2\Session 1\male.ASF
:FULLY-SPECIFIED
:DEGREES
193
root 3.76321 14.7909 15.3429 -150.534 -31.3612 -180.294
lowerback 32.3898 6.55606 -4.91601
upperback 17.7989 2.82613 1.22521
thorax 2.45463 -0.508122 3.03592
lowerneck -29.0907 -5.38694 -1.38882
upperneck 23.022 -10.2959 10.1466
head 13.266 -3.23049 2.15023
rclavicle 2.14687e-014 1.08835e-013
rhumerus -24.4579 7.6836 -94.2553
rradius 97.0738
rwrist 33.4937
rhand -16.6077 -18.5349
rfingers 7.12502
rthumb 9.61391 -48.2956
lclavicle 2.14687e-014 1.08835e-013
lhumerus 3.44425 -42.9759 77.1594
lradius 51.0247
lwrist -19.1122
lhand -10.8818 29.8417
lfingers 7.12502
lthumb 15.1343 59.2684
rfemur -73.2462 6.92494 -3.6169
rtibia 31.9439
rfoot -8.01949 -33.8134
rtoes -17.5171
lfemur -45.0722 -0.945291 -11.6869
ltibia 53.856
lfoot -13.4478 32.7251
ltoes 0.750254
194
root 3.76185 14.7588 15.1873 -150.467 -31.466 -180.709
lowerback 32.4459 6.40245 -4.77418
upperback 17.765 2.67951 1.16007
thorax 2.41861 -0.560785 2.93339
lowerneck -29.193 -5.42226 -1.21321
upperneck 23.0965 -10.4672 10.2174
head 13.3265 -3.2734 2.11333
rclavicle -4.49253e-014 6.50523e-014
rhumerus -24.0883 7.42905 -94.278
rradius 96.3385
rwrist 33.3818
rhand -16.5301 -18.5771
rfingers 7.12502
rthumb 9.68872 -48.3343
lclavicle -4.49253e-014 6.50523e-014
lhumerus 3.45898 -42.9565 77.1806
lradius 50.267
lwrist -19.1679
lhand -10.7998 29.96
lfingers 7.12502
lthumb 15.2134 59.3806
rfemur -72.4727 6.70496 -3.5323
rtibia 31.6931
rfoot -8.21662 -34.4137
rtoes -17.6576
lfemur -44.3513 -0.848357 -11.8369
ltibia 53.8789
lfoot -13.3634 32.7884
ltoes 0.216001
195
root 3.76231 14.7257 15.0281 -150.395 -31.5968 -181.137
lowerback 32.5204 6.23635 -4.66504
upperback 17.7182 2.51035 1.11883
thorax 2.35999 -0.627346 2.87885
lowerneck -29.361 -5.44316 -1.03958
upperneck 23.2342 -10.6085 10.2284
head 13.4183 -3.30579 2.05965
rclavicle 5.4467e-014 2.44008e-014
rhumerus -23.7124 7.26935 -94.2684
rradius 95.5227
rwrist 33.2663
rhand -16.4588 -18.605
rfingers 7.12502
rthumb 9.7575 -48.359
lclavicle 5.4467e-014 2.44008e-014
lhumerus 3.38864 -42.8235 77.2939
lradius 49.5304
lwrist -19.2574
lhand -10.6988 30.0812
lfingers 7.12502
lthumb 15.3106 59.4945
rfemur -71.7091 6.45952 -3.30798
rtibia 31.5917
rfoot -7.85956 -34.9624
rtoes -18.169
lfemur -43.641 -0.752991 -11.97
ltibia 53.9263
lfoot -13.2051 32.8045
ltoes -0.398114
196
root 3.76498 14.6941 14.8657 -150.329 -31.736 -181.555
lowerback 32.6215 6.06549 -4.57187
upperback 17.6603 2.33042 1.08959
thorax 2.27854 -0.7005 2.84789
lowerneck -29.5702 -5.47262 -0.936556
upperneck 23.3877 -10.7382 10.2531
head 13.5289 -3.33477 2.0249
rclavicle -6.59965e-014 -1.21259e-014
rhumerus -23.3248 7.18418 -94.2475
rradius 94.6395
rwrist 33.1688
rhand -16.4007 -18.6399
rfingers 7.12502
rthumb 9.81362 -48.3912
lclavicle -6.59965e-014 -1.21259e-014
lhumerus 3.26756 -42.5808 77.4561
lradius 48.8169
lwrist -19.4538
lhand -10.5212 30.1904
lfingers 7.12502
lthumb 15.4817 59.5905
rfemur -71.0244 6.17858 -2.92057
rtibia 31.6768
rfoot -6.80703 -35.3346
rtoes -18.9071
lfemur -42.9399 -0.648295 -12.0682
ltibia 53.9953
lfoot -12.9729 32.7568
ltoes -1.05526
197
root 3.77129 14.6657 14.7009 -150.263 -31.8515 -181.92
lowerback 32.7193 5.92285 -4.52344
upperback 17.5834 2.17974 1.09234
thorax 2.17195 -0.762163 2.86624
lowerneck -29.7495 -5.52823 -0.959366
upperneck 23.5318 -10.8724 10.3522
head 13.6439 -3.36807 2.03901
rclavicle -3.97569e-015 -1.00187e-013
rhumerus -22.9387 7.15698 -94.1974
rradius 93.7234
rwrist 33.0988
rhand -16.453 -18.6817
rfingers 7.12502
rthumb 9.76307 -48.4353
lclavicle -3.97569e-015 -1.00187e-013
lhumerus 3.08525 -42.2392 77.7018
lradius 48.1388
lwrist -19.7262
lhand -10.3012 30.2969
lfingers 7.12502
lthumb 15.6936 59.6805
rfemur -70.5349 5.85285 -2.33543
rtibia 32.0009
rfoot -5.12381 -35.4652
rtoes -19.8014
lfemur -42.2781 -0.500006 -12.1002
ltibia 54.0855
lfoot -12.626 32.6307
ltoes -1.76738
198
root 3.78298 14.6419 14.5348 -150.192 -31.8887 -182.187
lowerback 32.7867 5.85993 -4.54932
upperback 17.4891 2.11734 1.13623
thorax 2.0462 -0.785419 2.94297
lowerneck -29.956 -5.60599 -1.00964
upperneck 23.6796 -11.0208 10.4374
head 13.7676 -3.40968 2.04899
rclavicle 3.10104e-014 1.79403e-014
rhumerus -22.5594 7.1474 -94.1046
rradius 92.8556
rwrist 33.0548
rhand -16.648 -18.7672
rfingers 7.12502
rthumb 9.57495 -48.5296
lclavicle 3.10104e-014 1.79403e-014
lhumerus 2.87897 -41.8805 77.9893
lradius 47.5358
lwrist -19.9913
lhand -10.0678 30.4113
lfingers 7.12502
lthumb 15.9184 59.7771
rfemur -70.3514 5.49468 -1.51396
rtibia 32.6043
rfoot -3.08231 -35.2314
rtoes -20.775
lfemur -41.6889 -0.270653 -12.0358
ltibia 54.219
lfoot -12.1971 32.4092
ltoes -2.47352
